<svg xmlns="http://www.w3.org/2000/svg" viewBox="0 0 30 30" width="120" height="120"><path d="M22.875 25.177l.183-2.197-2.872-7.808h1.593v1.259h.777v-3.295h-.777v1.26h-1.878L18.04 9.337c.199-.448.312-.94.312-1.461A3.612 3.612 0 0015.215 4.3V0h-.973v4.3a3.611 3.611 0 00-3.138 3.576c0 .735.221 1.417.599 1.988l-1.667 4.531H8.081v-1.26h-.778v3.295h.778v-1.259H9.75l-2.872 7.808.183 2.197-1.069 4.759 2.403-4.21 1.727-1.618 4.845-12.4 4.846 12.4 1.726 1.618 2.403 4.21-1.067-4.758zm-8.091-14.789a2.505 2.505 0 11-.001-5.01 2.505 2.505 0 01.001 5.01z" fill="hsl(300, 74%, 25%)"/><circle cx="14.784" cy="7.918" r="1.234" fill="hsl(300, 74%, 25%)"/></svg>