<svg width="115" xmlns="http://www.w3.org/2000/svg" height="148" fill="none"><defs><clipPath id="a" class="frame-clip frame-clip-def"><rect rx="0" ry="0" width="115" height="148" transform="matrix(1.000000, 0.000000, 0.000000, 1.000000, 0.000000, 0.000000)"/></clipPath></defs><g clip-path="url(#a)"><g class="fills"><rect rx="0" ry="0" width="115" height="148" transform="matrix(1.000000, 0.000000, 0.000000, 1.000000, 0.000000, 0.000000)" class="frame-background"/></g><g class="frame-children"><path d="M14.675,83.382C9.193,75.497,6.000,66.046,6.000,55.891C6.000,28.355,29.476,6.000,58.392,6.000C87.308,6.000,110.785,28.355,110.785,55.891C110.785,66.046,107.591,75.497,102.110,83.382L102.231,83.382L58.392,148.545L14.554,83.382L14.675,83.382Z" style="fill: rgb(98, 189, 25); fill-opacity: 1;" class="fills"/><g class="strokes"><g class="inner-stroke-shape"><defs><clipPath id="c"><use href="#b"/></clipPath><path d="M14.675,83.382C9.193,75.497,6.000,66.046,6.000,55.891C6.000,28.355,29.476,6.000,58.392,6.000C87.308,6.000,110.785,28.355,110.785,55.891C110.785,66.046,107.591,75.497,102.110,83.382L102.231,83.382L58.392,148.545L14.554,83.382L14.675,83.382Z" id="b" style="fill: none; stroke-width: 12; stroke: rgb(93, 93, 93); stroke-opacity: 1;"/></defs><use href="#b" clip-path="url('#c')"/></g></g><ellipse cx="58.108" cy="56.291" rx="17.108" ry="16.291" transform="matrix(1.000000, 0.000000, 0.000000, 1.000000, 0.000000, 0.000000)" style="fill: rgb(255, 255, 255); fill-opacity: 1;" class="fills"/><g class="strokes"><g class="inner-stroke-shape" transform="matrix(1.000000, 0.000000, 0.000000, 1.000000, 0.000000, 0.000000)"><defs><clipPath id="e"><use href="#d"/></clipPath><ellipse cx="58.108" cy="56.291" rx="17.108" ry="16.291" id="d" style="fill: none; stroke-width: 12; stroke: rgb(93, 93, 93); stroke-opacity: 1;"/></defs><use href="#d" clip-path="url('#e')"/></g></g></g></g></svg>