<svg width="115" xmlns="http://www.w3.org/2000/svg" height="148" fill="none"><defs><clipPath id="a" class="frame-clip frame-clip-def"><rect rx="0" ry="0" width="115" height="148" transform="matrix(1.000000, 0.000000, 0.000000, 1.000000, 0.000000, 0.000000)"/></clipPath></defs><g clip-path="url(#a)"><g class="fills"><rect rx="0" ry="0" width="115" height="148" transform="matrix(1.000000, 0.000000, 0.000000, 1.000000, 0.000000, 0.000000)" class="frame-background"/></g><g class="frame-children"><path d="M14.675,83.382C9.193,75.497,6.000,66.046,6.000,55.891C6.000,28.355,29.476,6.000,58.392,6.000C87.308,6.000,110.785,28.355,110.785,55.891C110.785,66.046,107.591,75.497,102.110,83.382L102.231,83.382L58.392,148.545L14.554,83.382L14.675,83.382Z" style="fill: rgb(98, 189, 25); fill-opacity: 1;" class="fills"/><g class="strokes"><g class="inner-stroke-shape"><defs><clipPath id="c"><use href="#b"/></clipPath><path d="M14.675,83.382C9.193,75.497,6.000,66.046,6.000,55.891C6.000,28.355,29.476,6.000,58.392,6.000C87.308,6.000,110.785,28.355,110.785,55.891C110.785,66.046,107.591,75.497,102.110,83.382L102.231,83.382L58.392,148.545L14.554,83.382L14.675,83.382Z" id="b" style="fill: none; stroke-width: 12; stroke: rgb(93, 93, 93); stroke-opacity: 1;"/></defs><use href="#b" clip-path="url('#c')"/></g></g><ellipse cx="58.108" cy="56.291" rx="17.108" ry="16.291" transform="matrix(1.000000, 0.000000, 0.000000, 1.000000, 0.000000, 0.000000)" style="fill: rgb(255, 255, 255); fill-opacity: 1;" class="fills"/><g class="strokes"><g class="inner-stroke-shape" transform="matrix(1.000000, 0.000000, 0.000000, 1.000000, 0.000000, 0.000000)"><defs><clipPath id="e"><use href="#d"/></clipPath><ellipse cx="58.108" cy="56.291" rx="17.108" ry="16.291" id="d" style="fill: none; stroke-width: 12; stroke: rgb(93, 93, 93); stroke-opacity: 1;"/></defs><use href="#d" clip-path="url('#e')"/></g></g><rect rx="0" ry="0" x="30" y="47.085" transform="matrix(1.000000, 0.000000, 0.000000, 1.000000, 0.000000, 0.000000)" width="22.585" height="54.915" style="fill: rgb(0, 0, 0); fill-opacity: 1;" class="fills"/><rect rx="0" ry="0" x="51.509" y="67.284" transform="matrix(1.000000, 0.000000, 0.000000, 1.000000, 0.000000, 0.000000)" width="35.491" height="34.716" style="fill: rgb(0, 0, 0); fill-opacity: 1;" class="fills"/><path d="M41.498,13.000L30.000,47.085L52.585,47.085L41.498,13.000Z" style="fill: rgb(0, 0, 0); fill-opacity: 1;" class="fills"/><path d="M73.170,92.532L73.170,80.539L80.160,80.539L80.160,92.532L73.170,92.532Z" style="fill: rgb(204, 204, 204); fill-opacity: 1;" class="fills"/><ellipse cx="76.665" cy="80.697" rx="3.495" ry="3.945" transform="matrix(1.000000, 0.000000, 0.000000, 1.000000, 0.000000, 0.000000)" style="fill: rgb(204, 204, 204); fill-opacity: 1;" class="fills"/><path d="M57.170,92.532L57.170,80.539L64.160,80.539L64.160,92.532L57.170,92.532Z" style="fill: rgb(204, 204, 204); fill-opacity: 1;" class="fills"/><ellipse cx="60.665" cy="80.697" rx="3.495" ry="3.945" transform="matrix(1.000000, 0.000000, 0.000000, 1.000000, 0.000000, 0.000000)" style="fill: rgb(204, 204, 204); fill-opacity: 1;" class="fills"/><path d="M38.000,65.510L38.000,53.517L44.991,53.517L44.991,65.510L38.000,65.510Z" style="fill: rgb(204, 204, 204); fill-opacity: 1;" class="fills"/><ellipse cx="41.495" cy="53.675" rx="3.495" ry="3.945" transform="matrix(1.000000, 0.000000, 0.000000, 1.000000, 0.000000, 0.000000)" style="fill: rgb(204, 204, 204); fill-opacity: 1;" class="fills"/></g></g></svg>